<svg xmlns="http://www.w3.org/2000/svg" xmlns:xlink="http://www.w3.org/1999/xlink" viewBox="0 0 831 238"><defs><style>.cls-1{fill:#fff;}.cls-2,.cls-3{isolation:isolate;}.cls-3{font-size:95px;fill:#2069ff;font-family:GROBOLD;}.cls-4{fill:url(#Degradado_sin_nombre_6);}.cls-5{fill:url(#Degradado_sin_nombre_4);}.cls-6{fill:url(#Degradado_sin_nombre_4-2);}.cls-7{fill:url(#Degradado_sin_nombre_4-3);}</style><radialGradient id="Degradado_sin_nombre_6" cx="-4785.35" cy="-1871.61" r="0.5" gradientTransform="matrix(222.59, 0, 0, -222.66, 1065303.24, -416616.68)" gradientUnits="userSpaceOnUse"><stop offset="0" stop-color="#fdfdfd"/><stop offset="0.34" stop-color="#f8f8f8"/><stop offset="0.7" stop-color="#ebebeb"/><stop offset="1" stop-color="#dbdbdb"/></radialGradient><linearGradient id="Degradado_sin_nombre_4" x1="-4617.3" y1="-1946.64" x2="-4616.43" y2="-1946.15" gradientTransform="matrix(24.95, 0, 0, -24.95, 115325.11, -48398.49)" gradientUnits="userSpaceOnUse"><stop offset="0" stop-color="#50dbff"/><stop offset="1" stop-color="#2069ff"/></linearGradient><linearGradient id="Degradado_sin_nombre_4-2" x1="-4735.74" y1="-1887.55" x2="-4734.85" y2="-1887.14" gradientTransform="matrix(66.43, 0, 0, -83.28, 314707.01, -157086.05)" xlink:href="#Degradado_sin_nombre_4"/><linearGradient id="Degradado_sin_nombre_4-3" x1="-4787.3" y1="-1871.34" x2="-4786.29" y2="-1870.76" gradientTransform="matrix(238, 0, 0, -238, 1139359.38, -445185.12)" xlink:href="#Degradado_sin_nombre_4"/></defs><g id="Capa_2" data-name="Capa 2"><g id="eLEMENTOS"><g id="Grupo_48" data-name="Grupo 48"><path id="Rectángulo_2-2" data-name="Rectángulo 2-2" class="cls-1" d="M168.5,32h575A87.5,87.5,0,0,1,831,119.5h0A87.5,87.5,0,0,1,743.5,207h-575A87.51,87.51,0,0,1,81,119.5h0A87.51,87.51,0,0,1,168.5,32Z"/><g id="Yo_Nunca..." data-name="Yo Nunca..." class="cls-2"><text class="cls-3" transform="translate(275.88 157)">Yo Nunca...</text></g><g id="Grupo_47" data-name="Grupo 47"><path id="Trazado_52" data-name="Trazado 52" class="cls-4" d="M62.76,25.52l-48.35,47L10.23,231.91l125-3.72,67.4-34.4,28.82-65.07L212.9,59s-36.72-31.61-38.58-33.47S93.9,9.25,93.9,9.25Z"/><g id="Grupo_13" data-name="Grupo 13"><g id="Grupo_12" data-name="Grupo 12"><path id="Trazado_53" data-name="Trazado 53" class="cls-5" d="M115.36,159.54A12.48,12.48,0,1,0,127.83,172h0A12.48,12.48,0,0,0,115.36,159.54Z"/><path id="Trazado_54" data-name="Trazado 54" class="cls-6" d="M117.46,65.08c-21.87,0-31.92,13-31.92,21.71,0,6.32,5.35,9.24,9.73,9.24C104,96,100.45,83.55,117,83.55c8.1,0,14.58,3.57,14.58,11,0,8.75-9.07,13.77-14.42,18.31-4.7,4.05-10.86,10.69-10.86,24.63,0,8.42,2.27,10.85,8.92,10.85,7.94,0,9.56-3.56,9.56-6.64,0-8.43.16-13.29,9.07-20.25,4.38-3.4,18.15-14.42,18.15-29.66S138.21,65.08,117.46,65.08Z"/><path id="Trazado_55" data-name="Trazado 55" class="cls-7" d="M119,0A118.94,118.94,0,0,0,0,118.87V228.7A9.3,9.3,0,0,0,9.3,238H119A119,119,0,0,0,119,0Zm0,219.41H18.6V119A100.41,100.41,0,1,1,119,219.41Z"/></g></g></g></g></g></g></svg>