<svg xmlns="http://www.w3.org/2000/svg" xmlns:xlink="http://www.w3.org/1999/xlink" viewBox="0 0 831.97 239"><defs><style>.cls-1{fill:none;}.cls-2,.cls-5{isolation:isolate;}.cls-3{fill:#2069ff;}.cls-4{clip-path:url(#clip-path);}.cls-5{font-size:95px;font-family:GROBOLD;}.cls-5,.cls-6{fill:#fff;}.cls-7{fill:url(#radial-gradient);}.cls-8{fill:url(#Degradado_sin_nombre_19);}.cls-9{fill:url(#Degradado_sin_nombre_17);}.cls-10{fill:url(#Degradado_sin_nombre_18);}.cls-11{fill:url(#Degradado_sin_nombre_16);}.cls-12{opacity:0.7;mix-blend-mode:multiply;fill:url(#radial-gradient-2);}.cls-13{fill:url(#linear-gradient);}</style><clipPath id="clip-path"><rect class="cls-1" x="350.12" y="62.68" width="296" height="113"/></clipPath><radialGradient id="radial-gradient" cx="-2531.25" cy="-570.87" r="123.21" gradientTransform="translate(2650.75 690.37)" gradientUnits="userSpaceOnUse"><stop offset="0.37" stop-color="#fdfdfd"/><stop offset="0.65" stop-color="#fbfbfb"/><stop offset="0.81" stop-color="#f2f2f2"/><stop offset="0.94" stop-color="#e4e4e4"/><stop offset="1" stop-color="#dbdbdb"/></radialGradient><linearGradient id="Degradado_sin_nombre_19" x1="-2507.53" y1="-996.03" x2="-2749.48" y2="-1255.49" gradientTransform="translate(506.24 2998.36) rotate(60)" gradientUnits="userSpaceOnUse"><stop offset="0" stop-color="#50dbff"/><stop offset="0.57" stop-color="#2069ff"/><stop offset="0.79" stop-color="#915dc0"/><stop offset="1" stop-color="#ff5183"/></linearGradient><linearGradient id="Degradado_sin_nombre_17" x1="-2543.29" y1="-883.99" x2="-2853.9" y2="-1217.08" gradientTransform="translate(506.24 2998.36) rotate(60)" gradientUnits="userSpaceOnUse"><stop offset="0.32" stop-color="#50dbff"/><stop offset="0.61" stop-color="#2069ff"/><stop offset="0.81" stop-color="#915dc0"/><stop offset="1" stop-color="#ff5183"/></linearGradient><linearGradient id="Degradado_sin_nombre_18" x1="-2490.64" y1="-552.07" x2="-2428.74" y2="-754.53" gradientTransform="translate(2650.75 690.37)" gradientUnits="userSpaceOnUse"><stop offset="0" stop-color="#50dbff"/><stop offset="0" stop-color="#2069ff"/><stop offset="0.23" stop-color="#915dc0"/><stop offset="0.46" stop-color="#ff5183"/></linearGradient><linearGradient id="Degradado_sin_nombre_16" x1="-2644.58" y1="-398.98" x2="-2543.56" y2="-729.4" gradientTransform="translate(2650.75 690.37)" gradientUnits="userSpaceOnUse"><stop offset="0.52" stop-color="#2069ff"/><stop offset="0.67" stop-color="#915dc0"/><stop offset="0.82" stop-color="#ff5183"/></linearGradient><radialGradient id="radial-gradient-2" cx="-2531.65" cy="-570.47" r="13.13" gradientTransform="translate(2650.75 690.37)" gradientUnits="userSpaceOnUse"><stop offset="0.34" stop-color="#400500"/><stop offset="0.37" stop-color="#4f1814"/><stop offset="0.47" stop-color="#7d5451"/><stop offset="0.57" stop-color="#a48886"/><stop offset="0.67" stop-color="#c5b3b2"/><stop offset="0.76" stop-color="#ded4d3"/><stop offset="0.85" stop-color="#f0eceb"/><stop offset="0.93" stop-color="#fbfafa"/><stop offset="1" stop-color="#fff"/></radialGradient><linearGradient id="linear-gradient" x1="-2514.34" y1="-587.78" x2="-2564.24" y2="-537.88" gradientTransform="translate(2650.75 690.37)" gradientUnits="userSpaceOnUse"><stop offset="0" stop-color="#0e5df8"/><stop offset="0.31" stop-color="#0f4ee0"/><stop offset="0.96" stop-color="#1026a3"/><stop offset="1" stop-color="#10249f"/></linearGradient></defs><g class="cls-2"><g id="Capa_2" data-name="Capa 2"><g id="eLEMENTOS"><g id="Grupo_49" data-name="Grupo 49"><path id="Trazado_194-2" data-name="Trazado 194-2" class="cls-3" d="M157,31.68h588c48,0,86.91,39.17,86.91,87.5s-38.91,87.5-86.91,87.5H157c-48,0-86.91-39.18-86.91-87.5S109,31.68,157,31.68Z"/><g class="cls-4"><g id="Cuadrícula_de_repetición_1" data-name="Cuadrícula de repetición 1"><g id="Ruleta" class="cls-2"><text class="cls-5" transform="translate(350.59 156.68)">Ruleta</text></g></g></g><circle class="cls-6" cx="119.5" cy="119.5" r="119.5" transform="translate(-49.5 119.5) rotate(-45)"/><path class="cls-7" d="M235.14,119.5A115.65,115.65,0,1,1,119.5,3.86,115.64,115.64,0,0,1,235.14,119.5Z"/><path class="cls-8" d="M119.22,118l43.69,108.9c38.75-13.77,58.35-47.84,62.79-62.78"/><path class="cls-9" d="M74.22,226.86l45-108.9-108,46.12C21.47,181.12,27.31,199.56,74.22,226.86Z"/><path class="cls-10" d="M162.91,12.6,119.5,119.5,225.7,75.39C213.79,36.64,182.05,20.77,162.91,12.6Z"/><path class="cls-11" d="M11.44,75.39,119.5,119.5,74.22,12.6C30.34,35,25,49.71,11.44,75.39Z"/><path class="cls-12" d="M132.23,119.9a13.13,13.13,0,1,1-13.13-13.13A13.12,13.12,0,0,1,132.23,119.9Z"/><path class="cls-13" d="M127.46,119.5a8,8,0,1,1-8-8A8,8,0,0,1,127.46,119.5Z"/></g></g></g></g></svg>