<svg xmlns="http://www.w3.org/2000/svg" xmlns:xlink="http://www.w3.org/1999/xlink" viewBox="0 0 830.94 244.53"><defs><style>.cls-1{fill:#fff;}.cls-2,.cls-3{isolation:isolate;}.cls-3{font-size:95px;fill:#2069ff;font-family:GROBOLD;}.cls-4{fill:url(#Degradado_sin_nombre_5);}.cls-5{fill:none;stroke:#fff;stroke-miterlimit:10;stroke-width:15px;}.cls-6{opacity:0.46;}.cls-7{fill:#2e4e82;}.cls-8{fill:#eb453b;}</style><linearGradient id="Degradado_sin_nombre_5" x1="-4806.86" y1="-2435.73" x2="-4807.68" y2="-2434.93" gradientTransform="matrix(209.31, 0, 0, -209.31, 1006315.96, -509609.69)" gradientUnits="userSpaceOnUse"><stop offset="0" stop-color="#2069ff"/><stop offset="0.1" stop-color="#2668fb"/><stop offset="0.24" stop-color="#3966f0"/><stop offset="0.4" stop-color="#5762df"/><stop offset="0.5" stop-color="#825ec8"/><stop offset="0.74" stop-color="#b858aa"/><stop offset="0.96" stop-color="#fa5185"/><stop offset="1" stop-color="#ff5183"/></linearGradient></defs><g id="Capa_2" data-name="Capa 2"><g id="eLEMENTOS"><g id="Grupo_50" data-name="Grupo 50"><path id="Rect치ngulo_4-2" data-name="Rect치ngulo 4-2" class="cls-1" d="M176.44,35.59h567a87.51,87.51,0,0,1,87.5,87.5h0a87.5,87.5,0,0,1-87.5,87.5h-567a87.5,87.5,0,0,1-87.5-87.5h0A87.51,87.51,0,0,1,176.44,35.59Z"/><g id="Pictonary" class="cls-2"><text class="cls-3" transform="translate(277.63 160.59)">Pictonary</text></g><g id="Grupo_11" data-name="Grupo 11"><rect id="Rect치ngulo_24" data-name="Rect치ngulo 24" class="cls-4" x="17.02" y="18.2" width="209.31" height="209.31" rx="50.08" transform="translate(-39.01 186.73) rotate(-66.96)"/><path id="Trazado_50" data-name="Trazado 50" class="cls-5" d="M125.85,107.32c-13-11.34-67,12.78-67.48,38.65-.43,23.52,43.35,52.48,80.93,41.07,29.08-8.82,47.65-39.74,45.57-68.35-3-41.74-49-64.12-51.86-61.45-3,2.82,39.53,35.76,31.48,68.35-5.39,21.78-31.82,37.15-39.57,32.07C115.47,151.48,137.06,117.13,125.85,107.32Z"/><g id="Grupo_10" data-name="Grupo 10" class="cls-6"><path id="Trazado_49" data-name="Trazado 49" class="cls-7" d="M91.78,113.09l28.56-6.47a1.69,1.69,0,0,0,1.29-2,1.78,1.78,0,0,0-.41-.78L101.51,82.52A10.33,10.33,0,0,0,97,79.68L33.61,62.5,21,92.19,87,112.9A9.22,9.22,0,0,0,91.78,113.09Z"/></g><path id="Trazado_51" data-name="Trazado 51" class="cls-8" d="M121.62,104.89l-7.51-28a10.23,10.23,0,0,0-2.66-4.6L40.21,1a3.5,3.5,0,0,0-5,0h0L15.68,20.6a3.49,3.49,0,0,0,0,4.95h0L87.13,97a9.23,9.23,0,0,0,4.11,2.38l28.29,7.6a1.69,1.69,0,0,0,2.08-1.2,1.75,1.75,0,0,0,0-.88Z"/></g></g></g></g></svg>