<svg xmlns="http://www.w3.org/2000/svg" xmlns:xlink="http://www.w3.org/1999/xlink" viewBox="0 0 396 396"><defs><style>.cls-1{isolation:isolate;}.cls-2{fill:#fff;}.cls-3{fill:url(#radial-gradient);}.cls-4{fill:url(#Degradado_sin_nombre_19);}.cls-5{fill:url(#Degradado_sin_nombre_17);}.cls-6{fill:url(#Degradado_sin_nombre_18);}.cls-7{fill:url(#Degradado_sin_nombre_16);}.cls-8{opacity:0.7;mix-blend-mode:multiply;fill:url(#radial-gradient-2);}.cls-9{fill:url(#linear-gradient);}</style><radialGradient id="radial-gradient" cx="-2452.75" cy="-492.37" r="204.15" gradientTransform="translate(2650.75 690.37)" gradientUnits="userSpaceOnUse"><stop offset="0.37" stop-color="#fdfdfd"/><stop offset="0.65" stop-color="#fbfbfb"/><stop offset="0.81" stop-color="#f2f2f2"/><stop offset="0.94" stop-color="#e4e4e4"/><stop offset="1" stop-color="#dbdbdb"/></radialGradient><linearGradient id="Degradado_sin_nombre_19" x1="-3818.72" y1="100.14" x2="-4219.61" y2="-329.76" gradientTransform="translate(2186.73 3801.76) rotate(60)" gradientUnits="userSpaceOnUse"><stop offset="0" stop-color="#50dbff"/><stop offset="0.57" stop-color="#2069ff"/><stop offset="0.79" stop-color="#915dc0"/><stop offset="1" stop-color="#ff5183"/></linearGradient><linearGradient id="Degradado_sin_nombre_17" x1="-3877.97" y1="285.78" x2="-4392.63" y2="-266.13" gradientTransform="translate(2186.73 3801.76) rotate(60)" gradientUnits="userSpaceOnUse"><stop offset="0.32" stop-color="#50dbff"/><stop offset="0.61" stop-color="#2069ff"/><stop offset="0.81" stop-color="#915dc0"/><stop offset="1" stop-color="#ff5183"/></linearGradient><linearGradient id="Degradado_sin_nombre_18" x1="-2385.47" y1="-461.22" x2="-2282.91" y2="-796.68" gradientTransform="translate(2650.75 690.37)" gradientUnits="userSpaceOnUse"><stop offset="0" stop-color="#50dbff"/><stop offset="0" stop-color="#2069ff"/><stop offset="0.23" stop-color="#915dc0"/><stop offset="0.46" stop-color="#ff5183"/></linearGradient><linearGradient id="Degradado_sin_nombre_16" x1="-2640.52" y1="-207.56" x2="-2473.14" y2="-755.04" gradientTransform="translate(2650.75 690.37)" gradientUnits="userSpaceOnUse"><stop offset="0.52" stop-color="#2069ff"/><stop offset="0.67" stop-color="#915dc0"/><stop offset="0.82" stop-color="#ff5183"/></linearGradient><radialGradient id="radial-gradient-2" cx="-2453.41" cy="-491.71" r="21.75" gradientTransform="translate(2650.75 690.37)" gradientUnits="userSpaceOnUse"><stop offset="0.34" stop-color="#400500"/><stop offset="0.37" stop-color="#4f1814"/><stop offset="0.47" stop-color="#7d5451"/><stop offset="0.57" stop-color="#a48886"/><stop offset="0.67" stop-color="#c5b3b2"/><stop offset="0.76" stop-color="#ded4d3"/><stop offset="0.85" stop-color="#f0eceb"/><stop offset="0.93" stop-color="#fbfafa"/><stop offset="1" stop-color="#fff"/></radialGradient><linearGradient id="linear-gradient" x1="-2424.72" y1="-520.39" x2="-2507.42" y2="-437.7" gradientTransform="translate(2650.75 690.37)" gradientUnits="userSpaceOnUse"><stop offset="0" stop-color="#0e5df8"/><stop offset="0.31" stop-color="#0f4ee0"/><stop offset="0.96" stop-color="#1026a3"/><stop offset="1" stop-color="#10249f"/></linearGradient></defs><g class="cls-1"><g id="Capa_2" data-name="Capa 2"><g id="eLEMENTOS"><circle class="cls-2" cx="198" cy="198" r="198" transform="translate(-82.01 198) rotate(-45)"/><path class="cls-3" d="M389.61,198c0,105.82-85.79,191.61-191.61,191.61S6.39,303.82,6.39,198,92.18,6.39,198,6.39,389.61,92.18,389.61,198Z"/><path class="cls-4" d="M197.54,195.45l72.39,180.44c64.19-22.82,96.68-79.28,104-104"/><path class="cls-5" d="M123,375.89l74.56-180.44-179,76.41C35.58,300.09,45.25,330.64,123,375.89Z"/><path class="cls-6" d="M269.93,20.88,198,198l176-73.09C354.23,60.71,301.64,34.42,269.93,20.88Z"/><path class="cls-7" d="M19,124.91,198,198,123,20.88C50.27,58,41.38,82.37,19,124.91Z"/><path class="cls-8" d="M219.09,198.66a21.75,21.75,0,1,1-21.75-21.75A21.75,21.75,0,0,1,219.09,198.66Z"/><path class="cls-9" d="M211.18,198A13.19,13.19,0,1,1,198,184.82,13.18,13.18,0,0,1,211.18,198Z"/></g></g></g></svg>