<svg xmlns="http://www.w3.org/2000/svg" xmlns:xlink="http://www.w3.org/1999/xlink" viewBox="0 0 396 396"><defs><style>.cls-1{fill:url(#Degradado_sin_nombre_8);}.cls-2{fill:url(#Degradado_sin_nombre_12);}.cls-3{fill:url(#Degradado_sin_nombre_12-2);}.cls-4{fill:url(#Degradado_sin_nombre_12-3);}</style><radialGradient id="Degradado_sin_nombre_8" cx="201.09" cy="200.62" r="184.66" gradientUnits="userSpaceOnUse"><stop offset="0" stop-color="#fdfdfd"/><stop offset="0.34" stop-color="#f9f9f9"/><stop offset="0.7" stop-color="#ececec"/><stop offset="1" stop-color="#dbdbdb"/></radialGradient><linearGradient id="Degradado_sin_nombre_12" x1="174.23" y1="296.53" x2="209.96" y2="275.91" gradientUnits="userSpaceOnUse"><stop offset="0" stop-color="#50dbff"/><stop offset="1" stop-color="#2069ff"/></linearGradient><linearGradient id="Degradado_sin_nombre_12-2" x1="153.41" y1="197.12" x2="251.82" y2="140.31" xlink:href="#Degradado_sin_nombre_12"/><linearGradient id="Degradado_sin_nombre_12-3" x1="-31.34" y1="330.39" x2="369.49" y2="98.97" xlink:href="#Degradado_sin_nombre_12"/></defs><g id="Capa_2" data-name="Capa 2"><g id="eLEMENTOS"><path id="Trazado_52" data-name="Trazado 52" class="cls-1" d="M104.42,42.46,24,120.57,17,385.86l208.05-6.19,112.15-57.23,47.95-108.28-30.93-116S293.13,45.55,290,42.46s-133.8-27.08-133.8-27.08Z"/><g id="Grupo_13" data-name="Grupo 13"><g id="Grupo_12" data-name="Grupo 12"><path id="Trazado_53" data-name="Trazado 53" class="cls-2" d="M191.94,265.46a20.76,20.76,0,1,0,20.75,20.76,20.76,20.76,0,0,0-20.75-20.76Z"/><path id="Trazado_54" data-name="Trazado 54" class="cls-3" d="M195.44,108.28c-36.39,0-53.11,21.57-53.11,36.13,0,10.51,8.9,15.36,16.18,15.36,14.55,0,8.62-20.76,36.12-20.76,13.48,0,24.27,5.94,24.27,18.34,0,14.56-15.1,22.91-24,30.46-7.82,6.74-18.06,17.8-18.06,41,0,14,3.77,18.06,14.83,18.06,13.21,0,15.9-5.93,15.9-11,0-14,.28-22.11,15.1-33.7,7.28-5.66,30.2-24,30.2-49.34S230,108.28,195.44,108.28Z"/><path id="Trazado_55" data-name="Trazado 55" class="cls-4" d="M198,0C88.71-.06.06,88.49,0,197.79V380.53A15.47,15.47,0,0,0,15.47,396H198c109.35,0,198-88.65,198-198S307.35,0,198,0Zm0,365.06H30.94V198A167.07,167.07,0,1,1,198,365.06Z"/></g></g></g></g></svg>