<svg xmlns="http://www.w3.org/2000/svg" xmlns:xlink="http://www.w3.org/1999/xlink" viewBox="0 0 396.37 396.37"><defs><style>.cls-1{fill:url(#Degradado_sin_nombre_24);}.cls-2{fill:none;stroke:#fff;stroke-miterlimit:10;stroke-width:15px;}.cls-3{opacity:0.46;}.cls-4{fill:#2e4e82;}.cls-5{fill:#eb453b;}</style><linearGradient id="Degradado_sin_nombre_24" y1="198.18" x2="396.37" y2="198.18" gradientTransform="translate(302.98 -61.76) rotate(66.96)" gradientUnits="userSpaceOnUse"><stop offset="0" stop-color="#2069ff"/><stop offset="0.1" stop-color="#2768fb"/><stop offset="0.24" stop-color="#3966f1"/><stop offset="0.4" stop-color="#5863e0"/><stop offset="0.58" stop-color="#825ec8"/><stop offset="0.78" stop-color="#b959aa"/><stop offset="0.99" stop-color="#fa5286"/><stop offset="1" stop-color="#ff5183"/></linearGradient></defs><g id="Capa_2" data-name="Capa 2"><g id="eLEMENTOS"><g id="Grupo_11" data-name="Grupo 11"><g id="Rectángulo_24" data-name="Rectángulo 24"><rect class="cls-1" x="35.2" y="35.2" width="325.97" height="325.97" rx="50.08" transform="translate(-61.76 302.98) rotate(-66.96)"/></g><path id="Trazado_50" data-name="Trazado 50" class="cls-2" d="M204.68,174c-20.23-17.67-104.38,19.91-105.1,60.19-.65,36.62,67.52,81.73,126.06,64,45.28-13.74,74.2-61.9,71-106.44-4.73-65-76.34-99.87-80.77-95.71-4.67,4.39,61.56,55.7,49,106.45-8.38,33.91-49.55,57.86-61.62,49.95C188.52,242.76,222.15,189.26,204.68,174Z"/><g id="Grupo_10" data-name="Grupo 10" class="cls-3"><g id="Trazado_49" data-name="Trazado 49"><path class="cls-4" d="M151.63,183l44.49-10.07a2.65,2.65,0,0,0,2-3.17,2.82,2.82,0,0,0-.64-1.22l-30.7-33.15a16,16,0,0,0-7-4.41L61,104.19,41.38,150.43l102.85,32.25A14.19,14.19,0,0,0,151.63,183Z"/></g></g><g id="Trazado_51" data-name="Trazado 51"><path class="cls-5" d="M198.09,170.21,186.4,126.57a15.93,15.93,0,0,0-4.14-7.17L71.31,8.45a5.45,5.45,0,0,0-7.71,0L33.11,38.94a5.45,5.45,0,0,0,0,7.71L144.38,157.92a14.3,14.3,0,0,0,6.41,3.7l44.05,11.83a2.65,2.65,0,0,0,3.25-3.24Z"/></g></g></g></g></svg>