<svg xmlns="http://www.w3.org/2000/svg" viewBox="0 0 138.32 200.82"><defs><style>.cls-1,.cls-2{fill:#ffdfba;}.cls-2,.cls-4{opacity:0.4;isolation:isolate;}.cls-3,.cls-4{fill:#ffa234;}.cls-5{fill:#b5e3f0;}.cls-6{fill:#fff;}.cls-7{fill:#fff7e8;}.cls-8{fill:none;stroke:#fff;stroke-linecap:round;stroke-linejoin:round;stroke-width:3.01px;}</style></defs><g id="Capa_2" data-name="Capa 2"><g id="Tutoriales"><g id="Grupo_8" data-name="Grupo 8"><g id="Grupo_7" data-name="Grupo 7"><g id="Grupo_6" data-name="Grupo 6"><g id="Grupo_4" data-name="Grupo 4"><g id="Grupo_2" data-name="Grupo 2"><path id="Trazado_33" data-name="Trazado 33" class="cls-1" d="M132,55.72a3.75,3.75,0,0,0-2.15-4.84l-.07,0-88.63-32a3.74,3.74,0,0,0-4.79,2.26l0,.07c-2.6,7.69-4.7,14.65-6.39,21.05L28.38,48.5l-.52,2.28a12.5,12.5,0,0,0,1.75,1.14c3.73,2,8.13,2.26,12.35,2.11s8.46-.67,12.65-.15c16.61,2.06,28.17,19.71,44.83,21.38,5.32.54,10.68-.65,16-.4a29.68,29.68,0,0,1,7.86,1.48l.16-.35C126.27,70,129.1,63.31,132,55.72Z"/><path id="Trazado_34" data-name="Trazado 34" class="cls-2" d="M29.61,51.92c3.73,2,8.13,2.26,12.35,2.12,2.56-.09,5.14-.32,7.7-.37l1-4c1.69-6.4,3.78-13.36,6.39-21a3.73,3.73,0,0,1,4.75-2.35l.06,0-20.7-7.47a3.83,3.83,0,0,0-.74-.19,3.73,3.73,0,0,0-4.07,2.51c-.65,1.93-1.27,3.8-1.86,5.64-.3.92-.58,1.82-.86,2.72C32.23,34,31,38.25,30,42.25l-1.58,6.26c-.18.77-.35,1.52-.52,2.28A13.39,13.39,0,0,0,29.61,51.92Z"/></g><g id="Grupo_3" data-name="Grupo 3"><path id="Trazado_35" data-name="Trazado 35" class="cls-3" d="M99.44,75.27C82.78,73.59,71.22,55.94,54.61,53.88c-4.19-.52-8.43,0-12.65.15s-8.61-.13-12.35-2.11a13.39,13.39,0,0,1-1.75-1.13c-4,17.55-5,30.94-6,44.81-1.54,20.65-3.12,42-15.59,78.3a3.6,3.6,0,0,0,2.16,4.54l44.67,16.13a3.61,3.61,0,0,0,4.57-2.12c13.58-35.89,26-53.33,38-70.2h0c8.42-11.82,16.53-23.2,25-40.43l2.63-5.48a29.66,29.66,0,0,0-7.86-1.47C110.12,74.61,104.76,75.8,99.44,75.27Z"/><path id="Trazado_36" data-name="Trazado 36" class="cls-4" d="M29.1,185.91a3.59,3.59,0,0,1-2.16-4.54C39.41,145.08,41,123.73,42.53,103.08c1-13.88,2-27.27,6-44.82.17-.76.34-1.51.52-2.28l.58-2.31c-2.56,0-5.14.28-7.7.36-4.23.15-8.62-.13-12.35-2.11a13.39,13.39,0,0,1-1.75-1.13c-1.5,6.58-2.58,12.57-3.4,18.23-.95,6.6-1.55,12.74-2,18.8-.21,2.6-.4,5.18-.6,7.78-.24,3.23-.48,6.47-.77,9.79s-.61,6.7-1,10.22c-.57,4.91-1.31,10.08-2.32,15.64-.29,1.58-.61,3.21-.95,4.86-.16.83-.34,1.67-.52,2.51q-.55,2.55-1.18,5.2-.95,4-2.1,8.26c-.51,1.91-1.06,3.85-1.64,5.85-1.46,5-3.14,10.3-5.09,16A3.52,3.52,0,0,0,6,175.3a3.75,3.75,0,0,0,.69,1.91,3.58,3.58,0,0,0,1.66,1.24Z"/></g></g><path id="Trazado_37" data-name="Trazado 37" class="cls-5" d="M137.43,50.31a9.73,9.73,0,0,0-5.58-5.14l-88.63-32a9.81,9.81,0,0,0-12.55,5.9l-.06.18C28.07,26.75,25.88,34,24.1,40.7v.07L22.52,47l0,.08c-.16.66-.3,1.3-.45,2l-.09.38c-4.12,18-5.16,32.11-6.17,45.72-1.5,20.26-3.06,41.22-15.27,76.77a9.67,9.67,0,0,0,5.83,12.2L51,200.26a9.68,9.68,0,0,0,12.28-5.67c13.31-35.15,25.5-52.27,37.28-68.82,8.64-12.14,16.8-23.6,25.54-41.26l0-.07,2.79-5.83,0-.06c2.93-6.31,5.85-13.26,8.69-20.65A9.75,9.75,0,0,0,137.43,50.31ZM123.48,76l-.16.35-2.63,5.48c-8.51,17.22-16.62,28.61-25,40.43h0c-12,16.86-24.43,34.31-38,70.19a3.61,3.61,0,0,1-4.57,2.12L8.4,178.44a3.6,3.6,0,0,1-2.16-4.54c12.47-36.29,14.05-57.64,15.59-78.29,1-13.88,2-27.27,6-44.82.17-.76.34-1.51.52-2.28L30,42.25c1.69-6.4,3.78-13.36,6.39-21.06a3.74,3.74,0,0,1,4.75-2.34l.06,0,88.63,32a3.75,3.75,0,0,1,2.25,4.8l0,.07C129.1,63.3,126.27,70,123.48,76Z"/><g id="Grupo_5" data-name="Grupo 5"><path id="Trazado_38" data-name="Trazado 38" class="cls-6" d="M134.24,47c2-10-2.63-19.36-11-22.37a16.1,16.1,0,0,0-6.6-.91A1.62,1.62,0,0,1,115,22.31c-2.34-10-8.73-17.58-17.52-20.76S79,.12,70.75,6.33a1.59,1.59,0,0,1-2.12,0A16.08,16.08,0,0,0,63,2.82C54.62-.19,45.06,4.1,40.23,13a1.12,1.12,0,0,0,.45,1.52l.16.07L89.25,32.09,65,99.15a5.06,5.06,0,0,0,9.51,3.43L98.75,35.51l10.57,3.82L98,70.66a4.87,4.87,0,0,0,9.09,3.5c0-.07,0-.13.07-.2l11.31-31.33,14.29,5.16a1.12,1.12,0,0,0,1.44-.68.75.75,0,0,0,0-.16Z"/><path id="Trazado_39" data-name="Trazado 39" class="cls-7" d="M70.81,20.14a31.32,31.32,0,0,1,22-19.8c-7.46-1.2-15.26.88-22,6a1.59,1.59,0,0,1-2.12,0A16.08,16.08,0,0,0,63,2.82C54.63-.2,45.06,4.09,40.23,13a1.13,1.13,0,0,0,.46,1.52.69.69,0,0,0,.15.07L69.5,25A32.08,32.08,0,0,1,70.81,20.14Z"/></g><path id="Trazado_40" data-name="Trazado 40" class="cls-8" d="M64.1,155c8.31-16,16.25-27.14,24-38.06,6.73-9.44,13.15-18.46,19.72-30.4M56.1,171.71q1.74-4,3.46-7.6"/></g></g></g></g></g></svg>