<svg xmlns="http://www.w3.org/2000/svg" viewBox="0 0 100.02 100.03"><defs><style>.cls-1{fill:#fff;}</style></defs><g id="Capa_2" data-name="Capa 2"><g id="eLEMENTOS"><g id="sonido_mute" data-name="sonido mute"><path id="Trazado_6" data-name="Trazado 6" class="cls-1" d="M78.55,3.59a3.55,3.55,0,0,0-2-3.22A3.48,3.48,0,0,0,72.77.8L41.13,26,78.55,63.43Z"/><path id="Trazado_7" data-name="Trazado 7" class="cls-1" d="M98.94,93.9,6.1,1.06a3.57,3.57,0,0,0-5,5.05L23.51,28.58H21.42a7.26,7.26,0,0,0-7.14,7.14V64.29a7.16,7.16,0,0,0,7.14,7.14H38L72.77,99.21A3.64,3.64,0,0,0,75,100a4.08,4.08,0,0,0,1.58-.35,3.59,3.59,0,0,0,2-3.22V83.62L93.88,99A3.57,3.57,0,0,0,99,94l-.07-.07Z"/></g></g></g></svg>