<svg xmlns="http://www.w3.org/2000/svg" viewBox="0 0 117.64 100.01"><defs><style>.cls-1{fill:#fff;}</style></defs><g id="Capa_2" data-name="Capa 2"><g id="eLEMENTOS"><g id="equipo"><path id="Trazado_188" data-name="Trazado 188" class="cls-1" d="M58.82,48.91C69.94,48.91,79,38,79,24.45S76,0,58.82,0,38.69,11,38.69,24.45,47.7,48.91,58.82,48.91Z"/><path id="Trazado_189" data-name="Trazado 189" class="cls-1" d="M96.81,85.26c-.37-23.53-3.45-30.23-27-34.47,0,0-3.31,4.21-11,4.21s-11-4.21-11-4.21C24.54,55,21.28,61.59,20.86,84.5c0,1.87-.06,2-.06,1.75v2.47S26.4,100,58.82,100s38-11.29,38-11.29V86.89A12.68,12.68,0,0,1,96.81,85.26Z"/><path id="Trazado_190" data-name="Trazado 190" class="cls-1" d="M86.76,44.54c9,0,16.35-8.89,16.35-19.86S100.71,4.82,86.76,4.82a23.3,23.3,0,0,0-6.1.72c3.22,5.94,3.67,13.16,3.67,18.91a33.57,33.57,0,0,1-5,17.9A14,14,0,0,0,86.76,44.54Z"/><path id="Trazado_191" data-name="Trazado 191" class="cls-1" d="M117.61,74.06c-.3-19.1-2.8-24.55-21.9-28,0,0-2.68,3.43-8.95,3.43l-.76,0a25.23,25.23,0,0,1,10.27,8c4.61,6.32,5.67,14.82,5.89,27.29,12.85-2.54,15.48-7.84,15.48-7.84V75.38C117.61,75,117.6,74.5,117.61,74.06Z"/><path id="Trazado_192" data-name="Trazado 192" class="cls-1" d="M30.88,44.54a14,14,0,0,0,7.46-2.19,33.65,33.65,0,0,1-5-17.9c0-5.76.44-13,3.66-18.91a23.2,23.2,0,0,0-6.1-.72c-13.94,0-16.35,8.89-16.35,19.86S21.85,44.54,30.88,44.54Z"/><path id="Trazado_193" data-name="Trazado 193" class="cls-1" d="M31.64,49.47l-.76,0c-6.26,0-8.95-3.43-8.95-3.43C2.83,49.51.34,55,0,74.06a11.82,11.82,0,0,1,0,1.33v1.48s2.63,5.3,15.48,7.84c.22-12.47,1.28-21,5.89-27.29A25.23,25.23,0,0,1,31.64,49.47Z"/></g></g></g></svg>