<svg xmlns="http://www.w3.org/2000/svg" viewBox="0 0 100 100"><defs><style>.cls-1{fill:#fff;}</style></defs><g id="Capa_2" data-name="Capa 2"><g id="eLEMENTOS"><g id="instagram"><path id="Trazado_8" data-name="Trazado 8" class="cls-1" d="M50,24.32A25.66,25.66,0,1,0,75.68,50,25.65,25.65,0,0,0,50,24.32Zm0,42.31A16.65,16.65,0,1,1,66.67,50,16.66,16.66,0,0,1,50,66.63Z"/><path id="Trazado_9" data-name="Trazado 9" class="cls-1" d="M70.62.31c-9.2-.43-32-.4-41.2,0-8.09.38-15.23,2.34-21,8.09C-1.18,18,.05,31,.05,50,.05,69.43-1,82.09,8.44,91.56,18.09,101.21,31.24,100,50,100c19.26,0,25.91,0,32.73-2.63C92,93.73,99,85.45,99.68,70.58c.44-9.2.41-32,0-41.2C98.86,11.83,89.44,1.18,70.62.31ZM85.18,85.2c-6.3,6.3-15.05,5.74-35.28,5.74-20.84,0-29.19.31-35.29-5.8-7-7-5.75-18.21-5.75-35.22,0-23-2.36-39.6,20.75-40.78,5.3-.19,6.87-.25,20.23-.25L50,9C72.23,9,89.65,6.69,90.7,29.79c.23,5.27.29,6.85.29,20.2,0,20.59.39,29-5.81,35.22Z"/><circle id="Elipse_1" data-name="Elipse 1" class="cls-1" cx="76.69" cy="23.31" r="6"/></g></g></g></svg>