<svg xmlns="http://www.w3.org/2000/svg" viewBox="0 0 107.14 100"><defs><style>.cls-1{fill:#fff;}</style></defs><g id="Capa_2" data-name="Capa 2"><g id="eLEMENTOS"><g id="sonido_con_volumen" data-name="sonido con volumen"><path id="Trazado_3" data-name="Trazado 3" class="cls-1" d="M62.26.35a3.58,3.58,0,0,0-3.78.43L23.74,28.58H7.14A7.15,7.15,0,0,0,0,35.72V64.29a7.14,7.14,0,0,0,7.14,7.14h16.6L58.48,99.22a3.58,3.58,0,0,0,5.8-2.79V3.58A3.58,3.58,0,0,0,62.26.35Z"/><path id="Trazado_4" data-name="Trazado 4" class="cls-1" d="M82.36,24.75a3.57,3.57,0,0,0-5,5.08h0a28.49,28.49,0,0,1,0,40.29l0,0a3.57,3.57,0,0,0,5,5.07,35.62,35.62,0,0,0,.12-50.38l-.12-.12Z"/><path id="Trazado_5" data-name="Trazado 5" class="cls-1" d="M92.44,14.68a3.57,3.57,0,0,0-5,5.07h0A42.63,42.63,0,0,1,87.62,80l-.22.21a3.57,3.57,0,1,0,5,5.07,49.78,49.78,0,0,0,.24-70.39l-.24-.24Z"/></g></g></g></svg>