<svg xmlns="http://www.w3.org/2000/svg" xmlns:xlink="http://www.w3.org/1999/xlink" viewBox="0 0 889.99 1571.2"><defs><style>.cls-1{isolation:isolate;}.cls-2{stroke:#fff;stroke-miterlimit:10;stroke-width:16px;fill:url(#Degradado_sin_nombre_38);}.cls-3{font-size:71.86px;}.cls-13,.cls-22,.cls-3,.cls-4,.cls-5{fill:#fff;}.cls-13,.cls-22,.cls-3,.cls-4{font-family:GROBOLD;}.cls-4{font-size:35.47px;}.cls-6{fill:url(#radial-gradient);}.cls-7{fill:url(#Degradado_sin_nombre_19);}.cls-8{fill:url(#Degradado_sin_nombre_17);}.cls-9{fill:url(#Degradado_sin_nombre_18);}.cls-10{fill:url(#Degradado_sin_nombre_16);}.cls-11{opacity:0.7;mix-blend-mode:multiply;fill:url(#radial-gradient-2);}.cls-12{fill:url(#linear-gradient);}.cls-13{font-size:29.89px;}.cls-14{fill:#aa8dd8;}.cls-15{fill:#553986;}.cls-16{fill:#ffac33;}.cls-17{fill:#f4900c;}.cls-18{fill:#e1e8ed;}.cls-19{fill:#fa743e;}.cls-20{fill:#ffcc4d;}.cls-21{fill:#eee;}.cls-22{font-size:28.38px;}.cls-23{fill:url(#Degradado_sin_nombre_43);}.cls-24{fill:url(#Degradado_sin_nombre_43-2);}.cls-25{fill:url(#Degradado_sin_nombre_43-3);}.cls-26{fill:url(#Degradado_sin_nombre_43-4);}.cls-27{fill:url(#Degradado_sin_nombre_43-5);}.cls-28{fill:url(#Degradado_sin_nombre_43-6);}.cls-29{fill:url(#Degradado_sin_nombre_43-7);}</style><linearGradient id="Degradado_sin_nombre_38" x1="444.99" y1="1563.2" x2="445" y2="8" gradientUnits="userSpaceOnUse"><stop offset="0" stop-color="#50dbff"/><stop offset="0.12" stop-color="#42bbff"/><stop offset="0.27" stop-color="#369dff"/><stop offset="0.42" stop-color="#2c86ff"/><stop offset="0.58" stop-color="#2576ff"/><stop offset="0.76" stop-color="#216cff"/><stop offset="1" stop-color="#2069ff"/></linearGradient><radialGradient id="radial-gradient" cx="-2031.25" cy="-68.36" r="81.97" gradientTransform="translate(2650.75 690.37)" gradientUnits="userSpaceOnUse"><stop offset="0.37" stop-color="#fdfdfd"/><stop offset="0.65" stop-color="#fbfbfb"/><stop offset="0.81" stop-color="#f2f2f2"/><stop offset="0.94" stop-color="#e4e4e4"/><stop offset="1" stop-color="#dbdbdb"/></radialGradient><linearGradient id="Degradado_sin_nombre_19" x1="-5852.83" y1="5989.81" x2="-6013.79" y2="5817.2" gradientTransform="translate(8730.29 2835.02) rotate(60)" gradientUnits="userSpaceOnUse"><stop offset="0" stop-color="#50dbff"/><stop offset="0.57" stop-color="#2069ff"/><stop offset="0.79" stop-color="#915dc0"/><stop offset="1" stop-color="#ff5183"/></linearGradient><linearGradient id="Degradado_sin_nombre_17" x1="-5876.62" y1="6064.35" x2="-6083.26" y2="5842.75" gradientTransform="translate(8730.29 2835.02) rotate(60)" gradientUnits="userSpaceOnUse"><stop offset="0.32" stop-color="#50dbff"/><stop offset="0.61" stop-color="#2069ff"/><stop offset="0.81" stop-color="#915dc0"/><stop offset="1" stop-color="#ff5183"/></linearGradient><linearGradient id="Degradado_sin_nombre_18" x1="-2004.24" y1="-55.85" x2="-1963.06" y2="-190.54" gradientTransform="translate(2650.75 690.37)" gradientUnits="userSpaceOnUse"><stop offset="0" stop-color="#50dbff"/><stop offset="0" stop-color="#2069ff"/><stop offset="0.23" stop-color="#915dc0"/><stop offset="0.46" stop-color="#ff5183"/></linearGradient><linearGradient id="Degradado_sin_nombre_16" x1="-2106.64" y1="45.99" x2="-2039.44" y2="-173.82" gradientTransform="translate(2650.75 690.37)" gradientUnits="userSpaceOnUse"><stop offset="0.52" stop-color="#2069ff"/><stop offset="0.67" stop-color="#915dc0"/><stop offset="0.82" stop-color="#ff5183"/></linearGradient><radialGradient id="radial-gradient-2" cx="-2031.52" cy="-68.1" r="8.73" gradientTransform="translate(2650.75 690.37)" gradientUnits="userSpaceOnUse"><stop offset="0.34" stop-color="#400500"/><stop offset="0.37" stop-color="#4f1814"/><stop offset="0.47" stop-color="#7d5451"/><stop offset="0.57" stop-color="#a48886"/><stop offset="0.67" stop-color="#c5b3b2"/><stop offset="0.76" stop-color="#ded4d3"/><stop offset="0.85" stop-color="#f0eceb"/><stop offset="0.93" stop-color="#fbfafa"/><stop offset="1" stop-color="#fff"/></radialGradient><linearGradient id="linear-gradient" x1="-2020" y1="-79.61" x2="-2053.2" y2="-46.41" gradientTransform="translate(2650.75 690.37)" gradientUnits="userSpaceOnUse"><stop offset="0" stop-color="#0e5df8"/><stop offset="0.31" stop-color="#0f4ee0"/><stop offset="0.96" stop-color="#1026a3"/><stop offset="1" stop-color="#10249f"/></linearGradient><linearGradient id="Degradado_sin_nombre_43" x1="298.09" y1="1468.49" x2="298.09" y2="1396.28" gradientUnits="userSpaceOnUse"><stop offset="0" stop-color="#50dbff"/><stop offset="0.47" stop-color="#52dbff"/><stop offset="0.64" stop-color="#59dbff"/><stop offset="0.76" stop-color="#64dcff"/><stop offset="0.85" stop-color="#75ddff"/><stop offset="0.94" stop-color="#8bdeff"/><stop offset="1" stop-color="#a2dfff"/></linearGradient><linearGradient id="Degradado_sin_nombre_43-2" x1="362.16" y1="1468.76" x2="362.16" y2="1415.48" xlink:href="#Degradado_sin_nombre_43"/><linearGradient id="Degradado_sin_nombre_43-3" x1="431.52" y1="1484.52" x2="431.52" y2="1415.39" xlink:href="#Degradado_sin_nombre_43"/><linearGradient id="Degradado_sin_nombre_43-4" x1="482.33" y1="1468.85" x2="482.33" y2="1414.95" xlink:href="#Degradado_sin_nombre_43"/><linearGradient id="Degradado_sin_nombre_43-5" x1="528.48" y1="1467.79" x2="528.48" y2="1416.97" xlink:href="#Degradado_sin_nombre_43"/><linearGradient id="Degradado_sin_nombre_43-6" x1="575.07" y1="1468.05" x2="575.07" y2="1414.16" xlink:href="#Degradado_sin_nombre_43"/><linearGradient id="Degradado_sin_nombre_43-7" x1="624.12" y1="1468.58" x2="624.12" y2="1415.39" xlink:href="#Degradado_sin_nombre_43"/></defs><g class="cls-1"><g id="Capa_2" data-name="Capa 2"><g id="Tutoriales"><rect class="cls-2" x="8" y="8" width="873.99" height="1555.2" rx="99.59"/><text class="cls-3" transform="translate(246.94 144.99)">Como jugar</text><text class="cls-4" transform="translate(96.64 558.79)">Podes girar la ruleta <tspan x="0" y="42.56">para cualquier lado</tspan></text><path class="cls-5" d="M721.89,523.24a4.15,4.15,0,0,0,1.36-1.31l1.08-1.67a1.27,1.27,0,0,0,.16-.93l-4.08-17.28a16.63,16.63,0,0,0-7.18-10.16l-10.6-6.84a9.57,9.57,0,0,0-10.12-.19,9.75,9.75,0,0,0-3.19,3.07l-7.75,12a6,6,0,0,0-.52,5.48l4.81,12h0a6.42,6.42,0,0,0,6.14,4l-9.09,14.1a4.88,4.88,0,0,0-.1,5.16,5,5,0,0,0,6.91,1.61,5,5,0,0,0,1.62-1.56l17.78-27.57a1.2,1.2,0,0,1,2,0l5.09,8.61A4.12,4.12,0,0,0,721.89,523.24Z"/><path class="cls-5" d="M644.45,535.21h.37l10.7.86a1.18,1.18,0,0,0,.93-.31,1.57,1.57,0,0,0,.24-.32,1.21,1.21,0,0,0,0-1.14l-1.23-2.1a1.26,1.26,0,0,1,.62-1.8,24,24,0,0,1,20.93,1.5,2.44,2.44,0,0,0,3.21-.7l.71-1a1.22,1.22,0,0,0-.31-1.72,28.42,28.42,0,0,0-11.51-4.31,28.88,28.88,0,0,0-16.8,2.65s-1.57.81-2.29,1.25h0a28.74,28.74,0,0,0-6.25,5.13,1.19,1.19,0,0,0-.19,1.35A1.21,1.21,0,0,0,644.45,535.21Z"/><path class="cls-5" d="M707,574.92a1.22,1.22,0,0,0,1.18-.69,29,29,0,0,0,2.36-7.74h0c.13-.83.29-2.58.29-2.6a28.86,28.86,0,0,0-3.95-16.54,28.38,28.38,0,0,0-8.37-9,1.23,1.23,0,0,0-1.71.37l-.81,1.29a2.11,2.11,0,0,0,.53,2.82A24,24,0,0,1,706,562.1a.93.93,0,0,1-1.12.9l-3.26-.69a1.2,1.2,0,0,0-1.07.41,1.18,1.18,0,0,0-.28.95.85.85,0,0,0,.1.28l5.46,10a.78.78,0,0,1,0,.14,1.24,1.24,0,0,0,.1.2A1.21,1.21,0,0,0,707,574.92Z"/><circle class="cls-5" cx="619.5" cy="622.01" r="79.5" transform="translate(-258.38 620.23) rotate(-45)"/><path class="cls-6" d="M696.43,622a76.94,76.94,0,1,1-76.93-76.94A76.93,76.93,0,0,1,696.43,622Z"/><path class="cls-7" d="M619.31,621l29.07,72.44c25.77-9.16,38.82-31.83,41.77-41.76"/><path class="cls-8" d="M589.38,693.43,619.31,621l-71.86,30.68C554.28,663,558.17,675.27,589.38,693.43Z"/><path class="cls-9" d="M648.38,550.89,619.5,622l70.65-29.35C682.23,566.89,661.11,556.33,648.38,550.89Z"/><path class="cls-10" d="M547.61,592.66,619.5,622l-30.12-71.12C560.18,565.8,556.61,575.58,547.61,592.66Z"/><path class="cls-11" d="M628,622.27a8.74,8.74,0,1,1-8.74-8.73A8.74,8.74,0,0,1,628,622.27Z"/><path class="cls-12" d="M624.79,622a5.3,5.3,0,1,1-5.29-5.29A5.29,5.29,0,0,1,624.79,622Z"/><text class="cls-13" transform="translate(99.47 861.36)">Luego Responde <tspan x="0" y="35.87">la frase</tspan></text><text class="cls-13" transform="translate(494.46 906.01)">O tomas</text><circle class="cls-14" cx="401.12" cy="873.29" r="43.39"/><path class="cls-14" d="M381.83,839.54c-6.22,0-13.57-5.95-15.88-8.23a4.82,4.82,0,0,0-8.23,3.41c0,8.33,4,24.1,19.29,24.1a4.83,4.83,0,0,0,4.31-2.66l4.82-9.65a4.81,4.81,0,0,0-4.31-7Zm59.7-9.28a4.81,4.81,0,0,0-5.25,1c-2.14,2.13-9.64,8.23-15.88,8.23a4.82,4.82,0,0,0-4.31,7l4.82,9.64a4.83,4.83,0,0,0,4.31,2.66c15.26,0,19.29-15.77,19.29-24.1A4.82,4.82,0,0,0,441.53,830.26Z"/><path class="cls-15" d="M423.62,891.68a1.21,1.21,0,0,0-1.53-.07c-.09.07-9.46,7-21,7s-20.89-6.92-21-7a1.22,1.22,0,0,0-1.53.07,1.2,1.2,0,0,0-.22,1.51c.31.52,7.75,12.64,22.73,12.64s22.42-12.12,22.73-12.64A1.2,1.2,0,0,0,423.62,891.68Zm-28-17.69c-7.85-7.84-20.46-7.93-21-7.93a2.41,2.41,0,1,0,0,4.82,33.56,33.56,0,0,1,9.6,1.77,9.86,9.86,0,0,0-2.37,6.66c0,4.67,2.7,8.44,6,8.44s6-3.77,6-8.44a9.87,9.87,0,0,0-.09-1.22l.09,0a2.42,2.42,0,0,0,1.71-4.12Zm32-7.93c-.53,0-13.14.09-21,7.93a2.42,2.42,0,0,0,1.71,4.12l.09,0c0,.4-.09.81-.09,1.22,0,4.67,2.7,8.44,6,8.44s6-3.77,6-8.44a9.86,9.86,0,0,0-2.37-6.66,33.66,33.66,0,0,1,9.61-1.77,2.41,2.41,0,0,0,0-4.82Z"/><path class="cls-16" d="M670.09,865.07l8.83,2.34-1.43,5.38-4.92-1.3c-5.15,0-5.78,2.43-7.45,4.56l-5.26,19.87c.07,3.93,3.41,5.34,3.55,4.8l6.26,1.66-2.14,8.07-8.82-2.34a7.57,7.57,0,0,1-5.38-9.25l7.51-28.41A7.57,7.57,0,0,1,670.09,865.07Z"/><path class="cls-16" d="M676.23,866.7l40.35,10.67-13.52,51.11a5.58,5.58,0,0,1-6.81,3.95l-29.58-7.82a5.59,5.59,0,0,1-4-6.81Z"/><path class="cls-17" d="M672.24,916.47a2.17,2.17,0,0,0,2.82-1.82l7-26.42a2.18,2.18,0,0,0-1.55-3c-1.32-.35-2.68.44-3.83,1.56l-7,26.42C670.12,914.77,670.91,916.12,672.24,916.47Zm12,3.18c1.33.35,2.69-.44,4.27-1.44l7-26.42c-.87-1.65-1.66-3-3-3.36s-2.68.44-2.39,1.94l-7,26.41C682.13,917.94,682.92,919.3,684.24,919.65ZM674,875.06l2.22-8.36,40.35,10.67-3.47,13.12a7.24,7.24,0,0,1-2.61-.19A7.48,7.48,0,0,1,705,884a3.67,3.67,0,0,1-5.13-2.07A7.36,7.36,0,0,1,688,879.26a4.63,4.63,0,0,1-8.3-1.64,5.52,5.52,0,0,1-2.52-.06A4.76,4.76,0,0,1,674,875.06Z"/><path class="cls-18" d="M687,855.15l31.32,8.29a7.45,7.45,0,0,1,5.3,9.11l-1.89,7.12a7.74,7.74,0,0,1-7.19,5.94A7.6,7.6,0,0,1,706.8,879a3.76,3.76,0,0,1-5.2-2.08,7.55,7.55,0,0,1-12.11-2.7,4.69,4.69,0,0,1-8.33-1.5,3.72,3.72,0,0,1-5.41-4.21l2.13-8.06A7.45,7.45,0,0,1,687,855.15Z"/><path class="cls-19" d="M743.41,886.93a2.84,2.84,0,0,1-1.7-1.29,2.79,2.79,0,0,1,1-3.81l12.08-7a2.78,2.78,0,0,1,2.8,4.81l-12.08,7A2.77,2.77,0,0,1,743.41,886.93Zm-10-7.53a2.8,2.8,0,0,1-1.59-4.25l4.58-6.77A2.78,2.78,0,1,1,741,871.5l-4.58,6.77A2.8,2.8,0,0,1,733.41,879.4Zm12.42,19.9a2.78,2.78,0,0,1,.49-5.46l7.33-.6a2.78,2.78,0,0,1,.45,5.55l-7.33.59A2.67,2.67,0,0,1,745.83,899.3Z"/><path class="cls-16" d="M745.19,913.72l-8.83-2.34-1.42,5.38,3.34.89c4.46,2.57,3.82,5,3.11,7.35l-5.25,19.87c-.9,3.68-4.49,3.25-4.35,2.72l-4.68-1.24L725,954.42l8.82,2.33a7.57,7.57,0,0,0,9.25-5.38L750.57,923A7.56,7.56,0,0,0,745.19,913.72Z"/><path class="cls-20" d="M736.36,911.38,696,900.71l-13.52,51.11a5.58,5.58,0,0,0,4,6.8L716,966.45a5.58,5.58,0,0,0,6.8-4Z"/><path class="cls-17" d="M692.31,950.56c-1.33-.35-2.12-1.7-2.85-3.32l7-26.42c1.43-1,2.79-1.83,4.12-1.48a1.88,1.88,0,0,1,1.26,2.91l-7,26.41A1.86,1.86,0,0,1,692.31,950.56Zm24,6.36c-1.33-.35-2.12-1.71-2.66-3.28l7-26.41c1.24-1.09,2.6-1.89,3.92-1.53a2.06,2.06,0,0,1,1.46,2.95l-7,26.42A2.07,2.07,0,0,1,716.33,956.92Zm-12-3.18a2,2,0,0,1-1.41-2.94l7-26.42a2,2,0,0,1,2.68-1.86c1.33.35,2.11,1.71,2.7,3.28l-7,26.42C707,953.3,705.64,954.09,704.32,953.74Z"/><path class="cls-16" d="M734.15,919.75l2.21-8.37L696,900.71l-3.47,13.12A7.37,7.37,0,0,0,694.9,915a7.47,7.47,0,0,0,7.89-2.79,3.67,3.67,0,0,0,5.48.74,7.37,7.37,0,0,0,11.69,3.6,4.62,4.62,0,0,0,8,2.67,5.32,5.32,0,0,0,2.22,1.2A4.76,4.76,0,0,0,734.15,919.75Z"/><path class="cls-21" d="M732.71,896l-31.31-8.29a7.47,7.47,0,0,0-9.12,5.3l-1.88,7.13a7.76,7.76,0,0,0,3.31,8.72,7.61,7.61,0,0,0,10-1.93,3.75,3.75,0,0,0,5.55.76,7.53,7.53,0,0,0,11.86,3.64,4.74,4.74,0,0,0,3.49,4,4.68,4.68,0,0,0,4.5-1.22,3.66,3.66,0,0,0,2.22,1.66,3.73,3.73,0,0,0,4.56-2.64l2.13-8.06A7.45,7.45,0,0,0,732.71,896Z"/><path class="cls-5" d="M790.67,974.65c1.8.72-2-.9-.19-.09l1.21.55c.8.38,1.59.77,2.37,1.19a58.81,58.81,0,0,1,5.24,3.12c.74.49,1.46,1,2.17,1.52a10.49,10.49,0,0,0,.85.64c-2.1-1.25-.69-.53-.15-.09,1.5,1.23,3,2.54,4.33,3.91s2.46,2.55,3.61,3.9c.5.59,2,3,.59.66.56.9,1.27,1.71,1.87,2.58a67.42,67.42,0,0,1,5.55,10c.52,1.14-.86-2.17-.19-.43.19.49.39,1,.57,1.48.31.83.6,1.67.87,2.51a57.82,57.82,0,0,1,1.5,5.64c.18.89.33,1.79.49,2.69.35,1.9-.19-1.76-.05-.47.05.46.11.92.16,1.38a59.16,59.16,0,0,1,.28,6.1c0,1.85-.11,3.7-.29,5.54-.05.54-.19,1.12-.19,1.66,0-2.34.17-1.22.05-.47-.16,1-.35,2-.56,3a60.59,60.59,0,0,1-1.55,5.92c-.28.88-.58,1.76-.89,2.63l-.39,1c-.14.34-.27.69-.41,1,.55-1.29.64-1.5.25-.61a64.84,64.84,0,0,1-5.67,10.17,19.46,19.46,0,0,0-1.63,2.25l.73-1-.7.87-.72.85a54.86,54.86,0,0,1-4.22,4.41c-.7.65-1.41,1.29-2.14,1.91-.43.37-.88.73-1.31,1.09-1.49,1.25,1.28-.94.25-.18-1.67,1.23-3.36,2.43-5.13,3.52s-3.41,2-5.17,2.93c-.84.44-1.69.86-2.54,1.26a18.75,18.75,0,0,0-3.12,1.4c1.18-.92,1.36-.55.57-.24l-1.59.63c-.9.34-1.79.67-2.69,1-2,.71-4,1.36-6,2-4,1.18-8,2.17-12.12,3-8.56,1.81-17.23,3.1-25.89,4.36l-7,1-3.53.48c2.38-.32,0,0-.43,0l-2.12.28q-7.75,1-15.54,1.9-14.85,1.7-29.74,3-30.13,2.58-60.39,3.38c-37.44,1-76.72-.76-111.35,15.9a96.7,96.7,0,0,0-36.86,31.8c-9,12.85-14.63,29-13.45,44.76a64.74,64.74,0,0,0,2.14,12.59c1.28,4.53,6.43,7.79,11.07,6.29a9.17,9.17,0,0,0,6.29-11.07,54.13,54.13,0,0,1-1.27-5.61c-.05-.34-.09-.68-.16-1,.52,2.78.14,1,.07.35-.11-1-.19-2-.23-3.06a50.82,50.82,0,0,1,0-5.09c.05-.85.11-1.69.19-2.54.05-.5.14-1,.18-1.51-.2,2.78-.14,1.07,0,.38a60.16,60.16,0,0,1,2.88-10.88c.29-.79.7-1.59.93-2.41-.62,2.23-.5,1.15-.2.48.18-.39.35-.79.54-1.18.8-1.75,1.68-3.45,2.62-5.13s2-3.33,3.05-5c.49-.73,1-1.46,1.51-2.18l.63-.86c.37-.5,2-2.4.21-.31,2.47-2.86,4.85-5.74,7.56-8.39,1.42-1.38,2.88-2.72,4.39-4,.69-.59,1.38-1.16,2.08-1.73a8.92,8.92,0,0,0,.85-.67l-.54.42.87-.64a87.39,87.39,0,0,1,9.49-6.09q2.55-1.42,5.21-2.66a23.58,23.58,0,0,1,2.82-1.26c-1.94.61-.86.36-.38.17.79-.32,1.57-.64,2.36-.94a128.41,128.41,0,0,1,12.68-4.12c4.5-1.21,9.05-2.19,13.64-3,2.1-.36,4.2-.68,6.3-1s-2.07.25.15,0l1.27-.16c1.27-.15,2.54-.3,3.82-.43,18.53-1.93,37.19-1.74,55.8-2.19a1054.86,1054.86,0,0,0,123.61-10.37c17-2.43,34.51-4.75,50.61-11.17a89.51,89.51,0,0,0,24-13.89,65.69,65.69,0,0,0,16.11-19.88c8.25-15.64,10.76-34.35,5.8-51.43A70.88,70.88,0,0,0,807.05,963a72.22,72.22,0,0,0-11.6-5.72c-2-.81-5.13-.14-6.93.91a9.15,9.15,0,0,0-4.14,5.38c-1.18,5.21,1.6,9.19,6.29,11.07Z"/><text class="cls-22" transform="translate(141.82 1282.07)">Pasale al siguiente amiga/o para que gire </text><rect class="cls-5" x="188.5" y="1375.01" width="538" height="125" rx="62.5"/><path class="cls-23" d="M273.79,1399.89l48.61-3.61-2.73,22.28-22.1,1-.09,4.23,16-1.15L311.66,1438,297,1439.17l-.18,4.84,25.19-2.38-.44,24.31-47.12,2.55Z"/><path class="cls-24" d="M380.44,1436.7a3.45,3.45,0,0,0-1.23-2.73,4.88,4.88,0,0,0-3.26-1.06,4.33,4.33,0,0,0-3.35,1.33,4,4,0,0,0-1.23,2.73l.53,30.12-19.11,1.58.35-31.79a3.28,3.28,0,0,0-1.24-2.86,5.14,5.14,0,0,0-3.43-1.11,5.25,5.25,0,0,0-3.13,1.06,3.29,3.29,0,0,0-1.36,3l.88,31.79-18.5-1.59-1.05-50.11,18-1.58v8.1h.18a22.76,22.76,0,0,1,6.38-5.95,18.74,18.74,0,0,1,15.5-.88,14.79,14.79,0,0,1,5.07,4,19.07,19.07,0,0,1,5.2-3.83,14.12,14.12,0,0,1,6.42-1.45,17,17,0,0,1,7,1.36,14.19,14.19,0,0,1,5.1,3.83,17.46,17.46,0,0,1,3.17,5.77,23.93,23.93,0,0,1,1.19,7.09l.53,33.56-19.11,1.58Z"/><path class="cls-25" d="M422.36,1415.39v6a19.33,19.33,0,0,1,5.86-4.54,16.64,16.64,0,0,1,7.26-1.45,20.21,20.21,0,0,1,9.65,2.33,23.84,23.84,0,0,1,7.39,6.12,28.55,28.55,0,0,1,4.71,8.59,29.25,29.25,0,0,1,1.68,9.73,29.88,29.88,0,0,1-1.76,10.17,28.13,28.13,0,0,1-5,8.68,24.78,24.78,0,0,1-7.71,6.08,21.45,21.45,0,0,1-9.86,2.28,23.87,23.87,0,0,1-5.86-.79,12.3,12.3,0,0,1-5.59-3.17l.53,17.53-18.58,1.58-1-67.55Zm12,34.08a9.91,9.91,0,0,0,5.32-5.19,7.42,7.42,0,0,0-4.84-10.26,10.14,10.14,0,0,0-7.35.83,10.49,10.49,0,0,0-5.46,5.24,7.51,7.51,0,0,0,2,8.81,7.59,7.59,0,0,0,2.86,1.45,10,10,0,0,0,3.53.27A11.58,11.58,0,0,0,434.34,1449.47Z"/><path class="cls-26" d="M507.79,1461.54a37.93,37.93,0,0,1-11,5.59,44.68,44.68,0,0,1-12.95,1.72,28.23,28.23,0,0,1-11-2.07,27,27,0,0,1-8.59-5.6,25.3,25.3,0,0,1-7.66-18.23,31.11,31.11,0,0,1,2.11-11.8,26.2,26.2,0,0,1,5.73-8.8,24.47,24.47,0,0,1,8.41-5.51,27.71,27.71,0,0,1,10.26-1.89,26.17,26.17,0,0,1,15.28,4.49,27.11,27.11,0,0,1,9.64,12l-26.33,19.81a6.79,6.79,0,0,0,2.55.71,25.87,25.87,0,0,0,2.91.17,14.54,14.54,0,0,0,6.82-1.45,25.59,25.59,0,0,0,5.07-3.48Zm-18.85-28.89a6.39,6.39,0,0,0-2.69-2,9.69,9.69,0,0,0-3.3-.52,6.84,6.84,0,0,0-3.21.75,7.78,7.78,0,0,0-2.51,2A9.7,9.7,0,0,0,475,1439a8.23,8.23,0,0,0,.22,2.25,10.26,10.26,0,0,0,.58,1.36Z"/><path class="cls-27" d="M512.72,1417h36.72l-14.79,32.5h15.67l-3.78,18.32h-39.9l15-32.5H509Z"/><path class="cls-28" d="M581.5,1462.07h-.18a12.49,12.49,0,0,1-6,4.66,23,23,0,0,1-7.88,1.32,17.82,17.82,0,0,1-6.7-1.27,16.33,16.33,0,0,1-5.54-3.66,17.58,17.58,0,0,1-3.79-5.72,19.12,19.12,0,0,1-1.41-7.49,15.64,15.64,0,0,1,1.41-6.65,16.73,16.73,0,0,1,3.83-5.28,17.58,17.58,0,0,1,5.72-3.52,19.82,19.82,0,0,1,7.18-1.28,17.23,17.23,0,0,1,6.83,1.19,21.74,21.74,0,0,1,4.71,2.68v-2.64q0-4-2.64-5.37a15.4,15.4,0,0,0-6.87-1.32,31.14,31.14,0,0,0-7.22.79q-3.36.79-6.79,1.85l3.44-14a50.13,50.13,0,0,1,8.81-1.72,89.37,89.37,0,0,1,9.33-.48,35.23,35.23,0,0,1,8.46,1,20.35,20.35,0,0,1,7.26,3.3,16.74,16.74,0,0,1,5,5.9,18.69,18.69,0,0,1,1.76,8.9l-1,33.29-17.7,1.49Zm-11.19-16.3a9.79,9.79,0,0,0-4.93,2.07,4,4,0,0,0-1.67,3.66,4.06,4.06,0,0,0,2.51,3,9.74,9.74,0,0,0,5.59.48,9,9,0,0,0,5.11-2.2,4,4,0,0,0,1.32-3.61,4.19,4.19,0,0,0-2.25-2.86Q574,1445.15,570.31,1445.77Z"/><path class="cls-29" d="M624.12,1415.39v9.77h.18q2.3-9.77,13.21-9.77a37.56,37.56,0,0,1,4.49.26l-4.58,18.76a9.13,9.13,0,0,0-1.32-.09h-1.76a9.2,9.2,0,0,0-6.39,2.43q-2.69,2.41-2.68,7.61V1467l-18.5,1.58-.52-51.61Z"/><path class="cls-5" d="M165.62,820.28l22.16-38.39a4.92,4.92,0,0,0-4.26-7.38H139.19a4.92,4.92,0,0,0-4.26,7.38l22.17,38.39A4.92,4.92,0,0,0,165.62,820.28Z"/><path class="cls-5" d="M264.6,510.86l22.16-38.39a4.92,4.92,0,0,0-4.26-7.38H238.17a4.92,4.92,0,0,0-4.26,7.38l22.17,38.39A4.92,4.92,0,0,0,264.6,510.86Z"/><path class="cls-5" d="M471.79,1216.22,494,1177.83a4.92,4.92,0,0,0-4.26-7.38H445.36a4.92,4.92,0,0,0-4.26,7.38l22.17,38.39A4.92,4.92,0,0,0,471.79,1216.22Z"/><path class="cls-5" d="M451.22,169.41c-1.7,14.25-2.33,28.6-.35,42.86,1.33,9.58,4.17,19.28,9.54,27.42a52.47,52.47,0,0,0,18.5,17A91.05,91.05,0,0,0,502,265.11c17.13,4,34.74,5.69,51.6,10.89,1,.3,2,.62,3,.95s1.82.63,2.72,1c.45.18.9.37,1.35.53s.36.15-.44-.19l1.07.47a86.05,86.05,0,0,1,10.51,5.6q2.31,1.44,4.54,3c.82.58,1.64,1.17,2.46,1.78l1,.73c-1.42-1.07.35.29.63.51a116.3,116.3,0,0,1,9,8,113.63,113.63,0,0,1,7.88,8.67c.54.65,1.09,1.31,1.59,2-1.12-1.54,0,0,.19.27l.66.89q1.59,2.19,3,4.46a165.59,165.59,0,0,1,12.14,22.57c.08.18.93,2.2.29.63.16.41.33.81.49,1.22.41,1,.79,2,1.16,3.06q1.11,3,2,6.16c.56,2.05,1,4.11,1.41,6.2.07.42.13.83.2,1.24.33,2-.07-1.06,0,.19s.22,2.27.28,3.42a47.68,47.68,0,0,1-.09,6.21l-.12,1.23c-.2,2,.23-1.05,0,.17s-.41,2.27-.69,3.39c-.45,1.85-.9,4.27-1.92,5.89.09-.15.7-1.55.12-.32l-.56,1.2c-.42.88-.88,1.74-1.35,2.59a49.61,49.61,0,0,1-2.69,4.24l-.77,1.06c-.8,1.1.13-.1.2-.26a12,12,0,0,1-2.05,2.42c-1.12,1.25-2.31,2.44-3.54,3.59-.59.54-1.18,1.07-1.79,1.58l-1.23,1c-1.17,1,1.17-.84-.17.14a67,67,0,0,1-9.12,5.66q-1.2.6-2.43,1.17l-1,.44c-1.25.56.13,0,.3-.12a27.79,27.79,0,0,1-5.59,2c-1.54.48-3.1.9-4.67,1.27-.87.2-1.75.38-2.63.55l-1.32.24c-.33,0-2.65.39-.89.16a80.77,80.77,0,0,1-13.19.59q-3-.11-5.94-.41l-1.65-.18c-.39,0-1.87-.26-.3,0-1.21-.18-2.41-.37-3.61-.58a115.29,115.29,0,0,1-13-3.12q-6.39-1.94-12.58-4.48c-.34-.13-1.71-.71-.37-.14l-1.22-.53-3.09-1.38q-3.07-1.41-6.12-2.93c-8.1-4.06-15.94-8.61-23.71-13.26-15.58-9.33-31.07-18.69-47.27-26.92A533.87,533.87,0,0,0,393.83,329c-31.64-12.1-70.25-23.51-100.65-2a85.44,85.44,0,0,0-28.35,35.42,125,125,0,0,0-9.25,35c-1.37,10.6-1.89,21.3-2.2,32-.41,14.42-.4,28.85-.4,43.28q0,13.2,0,26.39c0,3.92,3.45,7.68,7.5,7.5A7.63,7.63,0,0,0,268,499c0-29.14-.8-58.46,1.21-87.56.18-2.56.39-5.11.64-7.67.1-1.09.22-2.17.34-3.26l.21-1.77c.08-.66.51-3.31.05-.43.68-4.22,1.3-8.43,2.27-12.6a98.19,98.19,0,0,1,2.75-9.65c.55-1.64,1.16-3.26,1.8-4.87,0-.09.71-1.76.24-.62s.24-.52.27-.61q.62-1.38,1.26-2.73a89.8,89.8,0,0,1,5.15-9.31c1-1.52,2-3,3.05-4.48l.64-.87c1.09-1.5-1,1.25.15-.19.56-.7,1.12-1.4,1.71-2.08a71.94,71.94,0,0,1,7.51-7.61c.67-.58,1.36-1.14,2.05-1.7,1-.84-.12.05-.26.19a13.25,13.25,0,0,1,1.28-.95c1.44-1,2.93-2,4.45-2.92s3.1-1.75,4.7-2.52l1-.46c.1,0,1.73-.76.59-.27s.5-.19.6-.23c.61-.24,1.22-.46,1.83-.68a60.34,60.34,0,0,1,6.2-1.82q1.39-.33,2.82-.6l1.58-.28c.22,0,2.35-.41.54-.1a61.92,61.92,0,0,1,12.84-.49c2.05.08,4.11.24,6.15.46l1.63.18c1.46.17.24,0-.05,0,1.31.19,2.6.39,3.9.62a174.29,174.29,0,0,1,25.62,6.82c8.52,2.89,16.94,6.11,25.27,9.5q2.84,1.15,5.65,2.35c-1.5-.64.57.24.72.3l1.25.54,3.43,1.49q6.23,2.73,12.38,5.63A538.7,538.7,0,0,1,471,383.3c30.83,18.53,64.14,39.89,101.76,37,16.18-1.25,31.61-7.12,43.89-17.86,12.48-10.91,20.06-27,19-43.7-1.11-18.08-9.78-35.14-19.13-50.3a117.12,117.12,0,0,0-34.16-35.09c-10.75-7.25-22.73-11.67-35.26-14.64-8.61-2-17.34-3.48-26-5a188.17,188.17,0,0,1-24-5.47q-2.73-.87-5.42-1.93c-.63-.25-2.33-1.07.23.11l-1.16-.51q-1.33-.6-2.64-1.26a51.18,51.18,0,0,1-4.77-2.74c-.69-.45-1.36-.91-2-1.39s-1.87-1.59.21.18c-.41-.35-.85-.68-1.27-1a42.35,42.35,0,0,1-4-3.83c-.57-.63-1.11-1.28-1.65-1.93-1.11-1.33,1.12,1.54.12.16-.34-.47-.68-.94-1-1.42a46.74,46.74,0,0,1-3-5.07c-.45-.89-.86-1.81-1.28-2.72-.53-1.17.65,1.61.31.74-.09-.26-.2-.51-.3-.77-.23-.57-.44-1.15-.65-1.73a92.07,92.07,0,0,1-3.4-14.37c.47,2.59,0,.12-.05-.51s-.15-1.44-.22-2.15q-.21-2.25-.33-4.5c-.17-3.26-.22-6.52-.18-9.79a216.47,216.47,0,0,1,1.61-22.33c.47-3.91-3.78-7.67-7.5-7.5-4.46.2-7,3.31-7.5,7.5Z"/><path class="cls-5" d="M701.93,680.59a50.07,50.07,0,0,1,6.59,3.5,28.3,28.3,0,0,1,5,3.73,55.45,55.45,0,0,1,5.21,5.3l.95,1.15c1.52,1.83-.72-1.11.64.85.72,1,1.43,2,2.1,3.08a60.41,60.41,0,0,1,3.59,6.56c.22.45.42.91.62,1.37-.57-1.31.37,1,.38,1q.68,1.75,1.23,3.54a60.48,60.48,0,0,1,1.77,7.26c.09.5.17,1,.24,1.48-.23-1.54.1.88.11,1,.12,1.23.2,2.47.24,3.71a63.55,63.55,0,0,1-.26,7.43c-.2,2.35.15-.81-.07.58-.1.61-.2,1.22-.32,1.83-.26,1.34-.57,2.66-.94,4-.3,1.08-.64,2.15-1,3.2-.25.7-.51,1.41-.8,2.1.14-.35.52-1.08-.17.31a68.19,68.19,0,0,1-4.07,7.22c-.37.54-.74,1.07-1.12,1.6-.88,1.22-.45.62-.24.35-.79,1-1.64,2-2.51,3a59.72,59.72,0,0,1-5.9,5.68c-.5.42-1,.84-1.51,1.24.76-.59-.28.2-.36.26-1,.78-2.14,1.52-3.24,2.24a72.93,72.93,0,0,1-7.23,4.14,71.48,71.48,0,0,1-14,5.21A77.52,77.52,0,0,1,672,777c-12.37,1-24.66-.79-36.62-3.94-27.27-7.16-52.55-20.67-78.3-31.85a1579.62,1579.62,0,0,0-165.45-61.56c-27.95-8.58-56.87-15.86-86.28-16a150.63,150.63,0,0,0-105.25,40.71c-8.93,8.35-16.41,18-23.66,27.8-5.58,7.54-10.83,15.38-14.6,24a102.57,102.57,0,0,0-7.61,29.28c-.7,5.83-1,11.71-1.19,17.58a7.5,7.5,0,0,0,15,0c.17-6,.51-12,1.24-18,.18-1.47-.27,1.73.1-.7.07-.5.14-1,.22-1.49.2-1.21.41-2.42.64-3.62.49-2.5,1.07-5,1.77-7.43q.87-3,2-6c.34-.91.69-1.82,1.07-2.72-.67,1.59.19-.39.28-.59.27-.59.54-1.18.83-1.76A104.21,104.21,0,0,1,182.83,749c12.49-19.1,27.68-36.56,46.95-48.89a135.81,135.81,0,0,1,70.14-21.44c29.21-.75,57.84,6.35,85.59,14.79A1532.39,1532.39,0,0,1,551,754.83C598.6,775.57,651.84,807,704.41,784c20.24-8.83,37.27-26.61,40.48-49.06,3.07-21.46-5.11-44.67-21.89-58.71a56.9,56.9,0,0,0-13.5-8.61c-3.71-1.64-8.06-1.08-10.27,2.69-1.86,3.19-1,8.62,2.7,10.26Z"/></g></g></g></svg>