<svg xmlns="http://www.w3.org/2000/svg" xmlns:xlink="http://www.w3.org/1999/xlink" viewBox="0 0 3120.98 3120.98"><defs><style>.cls-1{fill:#fff;}.cls-2{fill:url(#Degradado_sin_nombre_10);}.cls-3{fill:url(#Degradado_sin_nombre_2);}.cls-4{fill:url(#Degradado_sin_nombre_7);}.cls-5{fill:url(#Degradado_sin_nombre_7-2);}.cls-6{fill:url(#Degradado_sin_nombre_7-3);}.cls-7{fill:url(#Degradado_sin_nombre_7-4);}.cls-8{fill:url(#Degradado_sin_nombre_7-5);}.cls-9{fill:url(#Degradado_sin_nombre_7-6);}.cls-10{opacity:0.7;isolation:isolate;fill:url(#Degradado_sin_nombre_9);}.cls-11{fill:url(#Degradado_sin_nombre_10-2);}</style><linearGradient id="Degradado_sin_nombre_10" x1="6463.98" y1="-2667.53" x2="6464.98" y2="-2667.53" gradientTransform="matrix(2161.26, 2161.26, 2161.26, -2161.26, -8204626.1, -19735083.86)" gradientUnits="userSpaceOnUse"><stop offset="0" stop-color="#0e5df8"/><stop offset="0.31" stop-color="#0e4de0"/><stop offset="0.96" stop-color="#0f26a2"/><stop offset="1" stop-color="#10249f"/></linearGradient><radialGradient id="Degradado_sin_nombre_2" cx="6466.39" cy="-2667.61" r="0.53" gradientTransform="matrix(0, 3020.31, 3020.27, 0, 8058455.85, -19528948.48)" gradientUnits="userSpaceOnUse"><stop offset="0.37" stop-color="#fdfdfd"/><stop offset="0.65" stop-color="#fafafa"/><stop offset="0.81" stop-color="#f2f2f2"/><stop offset="0.94" stop-color="#e4e4e4"/><stop offset="1" stop-color="#dbdbdb"/></radialGradient><linearGradient id="Degradado_sin_nombre_7" x1="6468.47" y1="-2670.29" x2="6467.11" y2="-2672.19" gradientTransform="matrix(0, 1446.76, 1035.7, 0, 2768560.07, -9355897.08)" gradientUnits="userSpaceOnUse"><stop offset="0" stop-color="#50dbff"/><stop offset="0.52" stop-color="#2069ff"/><stop offset="0.76" stop-color="#915cbf"/><stop offset="1" stop-color="#ff5183"/></linearGradient><linearGradient id="Degradado_sin_nombre_7-2" x1="6471.67" y1="-2669.02" x2="6468.85" y2="-2670.32" gradientTransform="matrix(0, 695.13, 1510.13, 0, 4032811.72, -4495542.18)" xlink:href="#Degradado_sin_nombre_7"/><linearGradient id="Degradado_sin_nombre_7-3" x1="6468.02" y1="-2671.05" x2="6466.66" y2="-2672.95" gradientTransform="matrix(0, 1446.76, 1035.7, 0, 2768560.07, -9354450.32)" xlink:href="#Degradado_sin_nombre_7"/><linearGradient id="Degradado_sin_nombre_7-4" x1="6467.82" y1="-2671.78" x2="6466.46" y2="-2673.68" gradientTransform="matrix(0, 1446.76, 1035.7, 0, 2769595.77, -9354450.32)" xlink:href="#Degradado_sin_nombre_7"/><linearGradient id="Degradado_sin_nombre_7-5" x1="6468.28" y1="-2671.02" x2="6466.92" y2="-2672.92" gradientTransform="matrix(0, 1446.76, 1035.71, 0, 2769627.99, -9355897.08)" xlink:href="#Degradado_sin_nombre_7"/><linearGradient id="Degradado_sin_nombre_7-6" x1="6470.37" y1="-2669.42" x2="6467.54" y2="-2670.72" gradientTransform="matrix(0, 695.13, 1510.13, 0, 4034319.25, -4495541.79)" xlink:href="#Degradado_sin_nombre_7"/><radialGradient id="Degradado_sin_nombre_9" cx="6481.36" cy="-2706.75" r="0.5" gradientTransform="matrix(0, 171.4, 171.4, 0, 465491.63, -1109349.28)" gradientUnits="userSpaceOnUse"><stop offset="0.34" stop-color="#400500"/><stop offset="0.37" stop-color="#4e1813"/><stop offset="0.47" stop-color="#7c5451"/><stop offset="0.57" stop-color="#a48886"/><stop offset="0.67" stop-color="#c4b3b1"/><stop offset="0.76" stop-color="#ded4d3"/><stop offset="0.85" stop-color="#f0ebeb"/><stop offset="0.93" stop-color="#fbfaf9"/><stop offset="1" stop-color="#fff"/></radialGradient><linearGradient id="Degradado_sin_nombre_10-2" x1="6492.72" y1="-2732.63" x2="6489.59" y2="-2735.76" gradientTransform="matrix(0, 103.91, 103.91, 0, 285629.34, -673013.98)" xlink:href="#Degradado_sin_nombre_10"/></defs><g id="Capa_2" data-name="Capa 2"><g id="Tutoriales"><g id="Grupo_54" data-name="Grupo 54"><g id="Grupo_20" data-name="Grupo 20"><circle id="Elipse_7" data-name="Elipse 7" class="cls-1" cx="1560.49" cy="1560.49" r="1560.49"/><circle id="Elipse_8" data-name="Elipse 8" class="cls-2" cx="1560.49" cy="1560.49" r="1528.24"/><path id="Trazado_74" data-name="Trazado 74" class="cls-3" d="M1560.49,3070.65c-834,0-1510.13-676.17-1510.13-1510.14S726.47,50.34,1560.49,50.34,3070.62,726.46,3070.62,1560.51,2394.52,3070.65,1560.49,3070.65Z"/><g id="Grupo_19" data-name="Grupo 19"><path id="Trazado_75" data-name="Trazado 75" class="cls-4" d="M524.79,461.58l1035.7,1098.91L1126.55,113.73A1508.5,1508.5,0,0,0,524.79,461.58Z"/><path id="Trazado_76" data-name="Trazado 76" class="cls-5" d="M50.36,1560.51a1513.52,1513.52,0,0,0,40.27,347.55l1469.86-347.57L90.63,1212.93A1513.77,1513.77,0,0,0,50.36,1560.51Z"/><path id="Trazado_77" data-name="Trazado 77" class="cls-6" d="M1126.55,3007.25l433.94-1446.76L524.79,2659.4A1508.57,1508.57,0,0,0,1126.55,3007.25Z"/><path id="Trazado_78" data-name="Trazado 78" class="cls-7" d="M2596.19,2659.4,1560.49,1560.49l433.94,1446.76A1508.27,1508.27,0,0,0,2596.19,2659.4Z"/><path id="Trazado_79" data-name="Trazado 79" class="cls-8" d="M1994.43,113.73,1560.49,1560.49,2596.2,461.58A1508.61,1508.61,0,0,0,1994.43,113.73Z"/><path id="Trazado_80" data-name="Trazado 80" class="cls-9" d="M3070.62,1560.51a1514.32,1514.32,0,0,0-40.26-347.58L1560.49,1560.49l1469.87,347.57A1514.06,1514.06,0,0,0,3070.62,1560.51Z"/></g><path id="Trazado_81" data-name="Trazado 81" class="cls-10" d="M1555.31,1641a85.7,85.7,0,1,1,85.7-85.7h0A85.7,85.7,0,0,1,1555.31,1641Z"/><path id="Trazado_82" data-name="Trazado 82" class="cls-11" d="M1560.49,1612.44a52,52,0,1,1,52-52h0a51.94,51.94,0,0,1-51.94,52Z"/></g></g></g></g></svg>