<svg xmlns="http://www.w3.org/2000/svg" viewBox="0 0 210.57 210.72"><defs><style>.cls-1{fill:#fff;}</style></defs><g id="Capa_2" data-name="Capa 2"><g id="Tutoriales"><g id="Grupo_70" data-name="Grupo 70"><g id="Grupo_69" data-name="Grupo 69"><g id="Grupo_68" data-name="Grupo 68"><path id="Trazado_119" data-name="Trazado 119" class="cls-1" d="M174.62,65.87a11.59,11.59,0,0,0,1.5-5l.32-5.5a3.28,3.28,0,0,0-.87-2.44L142.36,16.87a45.87,45.87,0,0,0-31-14.73L76.58.05A26.42,26.42,0,0,0,52,13.3,26.79,26.79,0,0,0,48.45,25L46.09,64.42a16.56,16.56,0,0,0,6.16,13.91L80,100.63h0a17.74,17.74,0,0,0,20.19,1.31l-2.77,46.23a13.47,13.47,0,0,0,6.75,12.55c6.47,3.73,14.77,1.51,18.8-5.48a13.47,13.47,0,0,0,1.79-6l5.43-90.4a3.31,3.31,0,0,1,5-2.67L159.1,70A11.37,11.37,0,0,0,174.62,65.87Z"/><path id="Trazado_120" data-name="Trazado 120" class="cls-1" d="M4.51,199.51a4,4,0,0,0,.55-.27,3.35,3.35,0,0,1,.36-.21l26.91-12.41a3.31,3.31,0,0,0,1.81-2,3.09,3.09,0,0,0,.14-1.09,3.28,3.28,0,0,0-1.62-2.71l-5.79-3.38a3.46,3.46,0,0,1-1.24-4.74,3,3,0,0,1,.29-.43A66.42,66.42,0,0,1,53.61,152a65.61,65.61,0,0,1,24.7-4.46,6.72,6.72,0,0,0,6.77-6l.36-3.38a3.35,3.35,0,0,0-3-3.7h-.09a78.44,78.44,0,0,0-33.52,5.21A79.65,79.65,0,0,0,12,168.73s-2.69,4.1-3.82,6.11h0a79.68,79.68,0,0,0-8.1,20.81,3.31,3.31,0,0,0,4.42,3.85Z"/><path id="Trazado_121" data-name="Trazado 121" class="cls-1" d="M208.65,210.41a3.33,3.33,0,0,0,1.91-3.26,79.6,79.6,0,0,0-4.8-21.81h0c-.81-2.17-2.82-6.59-2.83-6.63A79.67,79.67,0,0,0,171,144.26a78.5,78.5,0,0,0-32.32-10.32,3.35,3.35,0,0,0-3.6,3.1.28.28,0,0,0,0,.09l-.21,4.21a5.85,5.85,0,0,0,5.09,6.07,66.09,66.09,0,0,1,49.08,33.42,2.53,2.53,0,0,1-1.47,3.68l-8.78,2.76a3.32,3.32,0,0,0-2,2.43,3.28,3.28,0,0,0,.63,2.67,2.26,2.26,0,0,0,.61.54l26.72,16.76a3.75,3.75,0,0,1,.33.26,3,3,0,0,0,.5.35A3.31,3.31,0,0,0,208.65,210.41Z"/></g></g></g></g></g></svg>